<?xml version="1.0" encoding="UTF-8"?>
<svg id="Layer_8" data-name="Layer 8" xmlns="http://www.w3.org/2000/svg" viewBox="0 0 4000 2000">
  <defs>
    <style>
      .cls-1 {
        letter-spacing: -.03em;
      }

      .cls-2 {
        font-family: Gotham-Light, Gotham;
        font-size: 96px;
        font-weight: 300;
      }

      .cls-2, .cls-3 {
        fill: #162641;
      }

      .cls-4 {
        fill: #b99944;
      }

      .cls-5 {
        letter-spacing: -.02em;
      }

      .cls-6 {
        letter-spacing: -.05em;
      }

      .cls-3 {
        font-family: Gotham-Bold, Gotham;
        font-size: 401.35px;
        font-weight: 700;
        letter-spacing: -.02em;
      }
    </style>
  </defs>
  <g id="Logo">
    <circle class="cls-4" cx="1500.44" cy="740.59" r="55.01"/>
    <path class="cls-4" d="M1076.75,694.49s149.48,238.79,327.01,186.28c68.8-91.66-27.5-518.84-37.51-565.09,0,0,43.76,357.56-11.9,491.58-140.62,62.26-277.6-112.77-277.6-112.77Z"/>
    <path class="cls-4" d="M882.42,1253.34c52.93-12.5,366.31-67.51,581.35-416.32-18.34,165.44-108.77,488.83-611.35,691.37,123.45-66.71,302.97-185.86,446.88-407.01,0,0-196.42,179.47-416.87,131.97Z"/>
  </g>
  <text class="cls-3" transform="translate(1702.08 1104.46)"><tspan x="0" y="0">hiyrED</tspan></text>
  <g id="tagline">
    <text class="cls-2" transform="translate(1831.44 1271.53)"><tspan class="cls-1" x="0" y="0">Futu</tspan><tspan class="cls-6" x="209.47" y="0">r</tspan><tspan class="cls-1" x="243.07" y="0">es Emp</tspan><tspan class="cls-6" x="580.22" y="0">ow</tspan><tspan class="cls-5" x="714.71" y="0">e</tspan><tspan class="cls-6" x="768.38" y="0">r</tspan><tspan class="cls-1" x="801.98" y="0">ed</tspan></text>
  </g>
</svg>