<?xml version="1.0" encoding="UTF-8"?>
<svg id="Layer_7" data-name="Layer 7" xmlns="http://www.w3.org/2000/svg" viewBox="0 0 4000 2000">
  <defs>
    <style>
      .cls-1 {
        font-family: Gotham-Bold, Gotham;
        font-size: 576.52px;
        font-weight: 700;
        letter-spacing: -.03em;
      }

      .cls-1, .cls-2, .cls-3 {
        fill: #c7ae6a;
      }

      .cls-4 {
        letter-spacing: .03em;
      }

      .cls-5 {
        letter-spacing: 0em;
      }

      .cls-6 {
        letter-spacing: 0em;
      }

      .cls-7 {
        letter-spacing: .03em;
      }

      .cls-3 {
        font-family: Gotham-Light, Gotham;
        font-size: 160px;
        font-weight: 300;
      }
    </style>
  </defs>
  <g id="Logo">
    <circle class="cls-2" cx="1271.58" cy="726.95" r="65.26"/>
    <path class="cls-2" d="M768.96,672.27s177.33,283.27,387.92,220.98c81.61-108.74-32.63-615.48-44.49-670.36,0,0,51.91,424.16-14.12,583.15-166.81,73.86-329.31-133.78-329.31-133.78Z"/>
    <path class="cls-2" d="M538.44,1335.21c62.78-14.83,434.54-80.09,689.64-493.87-21.75,196.26-129.03,579.89-725.23,820.15,146.44-79.14,359.4-220.49,530.12-482.83,0,0-233.01,212.91-494.53,156.55Z"/>
  </g>
  <text class="cls-1" transform="translate(1366.84 1280.97)"><tspan x="0" y="0">hiyrED</tspan></text>
  <g id="tagline">
    <text class="cls-3" transform="translate(1432.66 1519.96)"><tspan class="cls-7" x="0" y="0">Futu</tspan><tspan class="cls-5" x="382.39" y="0">r</tspan><tspan class="cls-4" x="446.71" y="0">es Emp</tspan><tspan class="cls-6" x="1058.55" y="0">ow</tspan><tspan class="cls-4" x="1299.35" y="0">e</tspan><tspan class="cls-5" x="1397.11" y="0">r</tspan><tspan class="cls-4" x="1461.43" y="0">ed</tspan></text>
  </g>
</svg>